<mxfile host="app.diagrams.net" modified="2023-08-01T15:07:30.108Z" agent="Mozilla/5.0 (Macintosh; Intel Mac OS X 10.15; rv:109.0) Gecko/20100101 Firefox/115.0" version="21.6.6" etag="7sWvCJjDFuMJFZhw_qP8" type="github">
  <diagram name="Page-1" id="Fh-jpy61QoL1tUPCu1fL">
    <mxGraphModel>
      <root>
        <mxCell id="0" />
        <mxCell id="1" parent="0" />
      </root>
    </mxGraphModel>
  </diagram>
</mxfile>
